<svg id="Слой_1" data-name="Слой 1" xmlns="http://www.w3.org/2000/svg" viewBox="0 0 199.76 163.76"><defs><style>.cls-1,.cls-2{fill:#ff5559;}.cls-2,.cls-6{stroke:#000;stroke-miterlimit:10;}.cls-3,.cls-6{fill:none;}.cls-4,.cls-5,.cls-6{isolation:isolate;}.cls-5,.cls-6{font-size:26px;font-family:Elephant-Regular, Elephant;}.cls-5{fill:#ff0;}.cls-6{stroke-width:0.5px;}</style></defs><path class="cls-1" d="M91,166.8c-22.2,0-43.3-5.7-59.3-16C15.4,140.3,5,125.5,2.4,109.1-.7,90,6.7,70.4,23.2,54S63.3,26,89.7,21.8a142.61,142.61,0,0,1,21.5-1.7c22.2,0,43.3,5.7,59.3,16,16.3,10.4,26.6,25.2,29.3,41.6,4.6,29.2-15.2,59-50.7,76A132.13,132.13,0,0,1,112.5,165,130.88,130.88,0,0,1,91,166.8Z" transform="translate(-1.22 -19.6)"/><path d="M111.2,20.6c22.1,0,43.1,5.7,59.1,15.9,16.1,10.4,26.4,25,29,41.3,2.3,14.3-1.4,29.1-10.6,42.7-9,13.3-22.8,24.7-39.8,32.8a134.89,134.89,0,0,1-36.5,11.3A140.3,140.3,0,0,1,91,166.3c-22.1,0-43.1-5.7-59.1-15.9-16.1-10.4-26.4-25-29-41.3C-3.3,69.9,35.6,30.9,89.8,22.3a140.3,140.3,0,0,1,21.4-1.7h0m0-1a146,146,0,0,0-21.6,1.7C34.8,30-4.5,69.4,1.9,109.2c5.5,34.5,43.4,58,89.1,58a146,146,0,0,0,21.6-1.7,134.06,134.06,0,0,0,36.8-11.4c34.4-16.5,55.7-46.4,50.9-76.6-5.5-34.4-43.5-57.9-89.1-57.9Z" transform="translate(-1.22 -19.6)"/><path class="cls-2" d="M177.1,134c.4.5,15.9,48.5,15.9,48.5s-58.5-23.5-57.5-23.8" transform="translate(-1.22 -19.6)"/><rect class="cls-3" x="11.51" y="49.8" width="175.6" height="87" transform="translate(-20.75 7.05) rotate(-13.93)"/><g class="cls-4"><text class="cls-5" transform="matrix(1.46, -0.36, 0.24, 0.97, 30.85, 65.05)">Funny </text><text class="cls-6" transform="matrix(1.46, -0.36, 0.24, 0.97, 30.85, 65.05)">Funny </text><text class="cls-5" transform="matrix(1.46, -0.36, 0.24, 0.97, 30.78, 99.07)">Comics </text><text class="cls-6" transform="matrix(1.46, -0.36, 0.24, 0.97, 30.78, 99.07)">Comics </text><text class="cls-5" transform="matrix(1.46, -0.36, 0.24, 0.97, 57.65, 126.41)">Land</text><text class="cls-6" transform="matrix(1.46, -0.36, 0.24, 0.97, 57.65, 126.41)">Land</text></g></svg>